<mxfile host="app.diagrams.net" modified="2023-08-02T17:24:31.304Z" agent="Mozilla/5.0 (Windows NT 10.0; Win64; x64) AppleWebKit/537.36 (KHTML, like Gecko) Chrome/115.0.0.0 Safari/537.36" etag="07Y4Yl5gNdxD7mGIzNDR" version="21.6.6" type="device">
  <diagram name="Page-1" id="jVRTwSANuptriIAOJ5WK">
    <mxGraphModel dx="1434" dy="758" grid="1" gridSize="10" guides="1" tooltips="1" connect="1" arrows="1" fold="1" page="1" pageScale="1" pageWidth="850" pageHeight="1100" math="0" shadow="0">
      <root>
        <mxCell id="0" />
        <mxCell id="1" parent="0" />
        <mxCell id="3hl7cFS-K8GNGfFw6mI9-3" value="" style="rounded=0;orthogonalLoop=1;jettySize=auto;html=1;endArrow=none;endFill=0;" parent="1" source="3hl7cFS-K8GNGfFw6mI9-1" target="3hl7cFS-K8GNGfFw6mI9-2" edge="1">
          <mxGeometry relative="1" as="geometry" />
        </mxCell>
        <mxCell id="7mRlxiWVUr4tO_FYAmdJ-11" value="" style="rounded=0;orthogonalLoop=1;jettySize=auto;html=1;endArrow=none;endFill=0;entryX=0;entryY=0.5;entryDx=0;entryDy=0;" edge="1" parent="1" source="3hl7cFS-K8GNGfFw6mI9-1" target="7mRlxiWVUr4tO_FYAmdJ-9">
          <mxGeometry relative="1" as="geometry" />
        </mxCell>
        <mxCell id="3hl7cFS-K8GNGfFw6mI9-1" value="designers" style="rounded=0;whiteSpace=wrap;html=1;" parent="1" vertex="1">
          <mxGeometry x="40" y="105.61" width="80" height="20" as="geometry" />
        </mxCell>
        <mxCell id="3hl7cFS-K8GNGfFw6mI9-2" value="&lt;u&gt;name&lt;/u&gt;" style="ellipse;whiteSpace=wrap;html=1;rounded=0;" parent="1" vertex="1">
          <mxGeometry x="10" y="180" width="80" height="30" as="geometry" />
        </mxCell>
        <mxCell id="7mRlxiWVUr4tO_FYAmdJ-5" style="rounded=0;orthogonalLoop=1;jettySize=auto;html=1;endArrow=none;endFill=0;entryX=0.613;entryY=1.05;entryDx=0;entryDy=0;entryPerimeter=0;" edge="1" parent="1" source="7mRlxiWVUr4tO_FYAmdJ-4" target="3hl7cFS-K8GNGfFw6mI9-1">
          <mxGeometry relative="1" as="geometry">
            <mxPoint x="170" y="170" as="targetPoint" />
          </mxGeometry>
        </mxCell>
        <mxCell id="7mRlxiWVUr4tO_FYAmdJ-4" value="&lt;u&gt;link&lt;/u&gt;" style="ellipse;whiteSpace=wrap;html=1;" vertex="1" parent="1">
          <mxGeometry x="40" y="200" width="60" height="30" as="geometry" />
        </mxCell>
        <mxCell id="7mRlxiWVUr4tO_FYAmdJ-6" value="blasters" style="rounded=0;whiteSpace=wrap;html=1;" vertex="1" parent="1">
          <mxGeometry x="355" y="105.61" width="70" height="20" as="geometry" />
        </mxCell>
        <mxCell id="7mRlxiWVUr4tO_FYAmdJ-8" value="" style="rounded=0;orthogonalLoop=1;jettySize=auto;html=1;endArrow=none;endFill=0;exitX=0.5;exitY=0;exitDx=0;exitDy=0;" edge="1" parent="1" source="7mRlxiWVUr4tO_FYAmdJ-7" target="7mRlxiWVUr4tO_FYAmdJ-6">
          <mxGeometry relative="1" as="geometry">
            <mxPoint x="447.4376695296637" y="190.0033982822016" as="sourcePoint" />
          </mxGeometry>
        </mxCell>
        <mxCell id="7mRlxiWVUr4tO_FYAmdJ-7" value="&lt;u&gt;id&lt;/u&gt;" style="ellipse;whiteSpace=wrap;html=1;" vertex="1" parent="1">
          <mxGeometry x="365" y="140" width="50" height="30" as="geometry" />
        </mxCell>
        <mxCell id="7mRlxiWVUr4tO_FYAmdJ-12" style="rounded=0;orthogonalLoop=1;jettySize=auto;html=1;entryX=0;entryY=0.5;entryDx=0;entryDy=0;endArrow=none;endFill=0;exitX=1;exitY=0.5;exitDx=0;exitDy=0;" edge="1" parent="1" source="7mRlxiWVUr4tO_FYAmdJ-9" target="7mRlxiWVUr4tO_FYAmdJ-6">
          <mxGeometry relative="1" as="geometry" />
        </mxCell>
        <mxCell id="7mRlxiWVUr4tO_FYAmdJ-9" value="designers_blasters_map" style="rhombus;whiteSpace=wrap;html=1;" vertex="1" parent="1">
          <mxGeometry x="150" y="85.61" width="170" height="60" as="geometry" />
        </mxCell>
        <mxCell id="7mRlxiWVUr4tO_FYAmdJ-10" style="edgeStyle=orthogonalEdgeStyle;rounded=0;orthogonalLoop=1;jettySize=auto;html=1;exitX=0.5;exitY=1;exitDx=0;exitDy=0;" edge="1" parent="1" source="7mRlxiWVUr4tO_FYAmdJ-4" target="7mRlxiWVUr4tO_FYAmdJ-4">
          <mxGeometry relative="1" as="geometry" />
        </mxCell>
        <mxCell id="7mRlxiWVUr4tO_FYAmdJ-14" value="0..N" style="text;html=1;align=center;verticalAlign=middle;resizable=0;points=[];autosize=1;strokeColor=none;fillColor=none;" vertex="1" parent="1">
          <mxGeometry x="315" y="85.61" width="50" height="30" as="geometry" />
        </mxCell>
        <mxCell id="7mRlxiWVUr4tO_FYAmdJ-15" value="0..N" style="text;html=1;align=center;verticalAlign=middle;resizable=0;points=[];autosize=1;strokeColor=none;fillColor=none;" vertex="1" parent="1">
          <mxGeometry x="110" y="85.61000000000001" width="50" height="30" as="geometry" />
        </mxCell>
      </root>
    </mxGraphModel>
  </diagram>
</mxfile>
